<svg width="50" height="50" viewBox="0 0 50 50" fill="none" xmlns="http://www.w3.org/2000/svg">
<g clip-path="url(#clip0_277_8)">
<path d="M39.517 39.9427C47.7696 31.9252 47.9602 18.7357 39.9428 10.483C31.9253 2.23038 18.7357 2.03975 10.483 10.0573C2.23039 18.0748 2.03976 31.2643 10.0573 39.517C18.0748 47.7696 31.2643 47.9602 39.517 39.9427Z" stroke="#334A61" stroke-width="3" stroke-linecap="round" stroke-linejoin="round"/>
<path d="M27.6191 33.5098C27.6191 33.8014 27.5645 34.0749 27.4551 34.3301C27.3457 34.5853 27.1953 34.8086 27.0039 35C26.8216 35.1914 26.6029 35.3418 26.3477 35.4512C26.0924 35.5605 25.819 35.6152 25.5273 35.6152C25.2357 35.6152 24.9622 35.5605 24.707 35.4512C24.4518 35.3418 24.2285 35.1914 24.0371 35C23.8457 34.8086 23.6953 34.5853 23.5859 34.3301C23.4766 34.0749 23.4219 33.8014 23.4219 33.5098C23.4219 33.2272 23.4766 32.9583 23.5859 32.7031C23.6953 32.4479 23.8457 32.2292 24.0371 32.0469C24.2285 31.8646 24.4518 31.7188 24.707 31.6094C24.9622 31.5 25.2357 31.4453 25.5273 31.4453C25.819 31.4453 26.0924 31.5 26.3477 31.6094C26.6029 31.7188 26.8216 31.8646 27.0039 32.0469C27.1953 32.2292 27.3457 32.4479 27.4551 32.7031C27.5645 32.9583 27.6191 33.2272 27.6191 33.5098ZM27.9336 17.4453C27.9336 18.0286 27.8971 18.694 27.8242 19.4414C27.7604 20.1797 27.6693 20.9681 27.5508 21.8066C27.4414 22.6452 27.3138 23.5202 27.168 24.4316C27.0221 25.334 26.8763 26.2363 26.7305 27.1387C26.6484 27.6673 26.5664 28.1823 26.4844 28.6836C26.4023 29.1849 26.3249 29.6771 26.252 30.1602C26.2246 30.3424 26.1426 30.4928 26.0059 30.6113C25.8691 30.7207 25.7096 30.7754 25.5273 30.7754C25.3542 30.7754 25.1992 30.7207 25.0625 30.6113C24.9349 30.4928 24.8574 30.3424 24.8301 30.1602C24.7572 29.668 24.6751 29.1576 24.584 28.6289C24.4928 28.1003 24.4062 27.5534 24.3242 26.9883C24.1784 26.1042 24.0326 25.2201 23.8867 24.3359C23.75 23.4427 23.627 22.5859 23.5176 21.7656C23.4082 20.9362 23.3171 20.1569 23.2441 19.4277C23.1803 18.6895 23.1484 18.0286 23.1484 17.4453C23.1484 17.1172 23.2077 16.8118 23.3262 16.5293C23.4538 16.2376 23.627 15.9824 23.8457 15.7637C24.0645 15.5449 24.3151 15.3763 24.5977 15.2578C24.8893 15.1302 25.1992 15.0664 25.5273 15.0664C25.8555 15.0664 26.1654 15.1302 26.457 15.2578C26.7487 15.3763 27.0039 15.5449 27.2227 15.7637C27.4414 15.9824 27.6146 16.2376 27.7422 16.5293C27.8698 16.8118 27.9336 17.1172 27.9336 17.4453Z" fill="#334A61"/>
</g>
<defs>
<clipPath id="clip0_277_8">
<rect width="50" height="50" fill="white"/>
</clipPath>
</defs>
</svg>
